# xmcd CD database file
#
# Track frame offsets:
#	150
#	13510
#	27174
#	39540
#	51342
#	65550
#	77388
#	90006
#	104574
#	116053
#	129433
#	139774
#
# Disc length: 2033 seconds
#
# Revision: 0
# Processed by: cddbd v1.5.2PL0 Copyright (c) Steve Scherf et al.
# Submitted via: CDex 1.51
#
DISCID=9407ef0c
DTITLE=Ana Egge - Bad Blood
DYEAR=2011
DGENRE=Country
TTITLE0=Driving with No Hands 
TTITLE1=Hole in Your Halo 
TTITLE2=Bad Blood 
TTITLE3=Walking with the Wolves 
TTITLE4=Motorcycle 
TTITLE5=Evil 
TTITLE6=Hands and Knees 
TTITLE7=Shadow Fall 
TTITLE8=Chestnut Tree 
TTITLE9=Silver Hells 
TTITLE10=Your Voice Convinces Me 
TTITLE11=There Won't Be Anymore 
EXTD=YEAR: 2011
EXTT0=
EXTT1=
EXTT2=
EXTT3=
EXTT4=
EXTT5=
EXTT6=
EXTT7=
EXTT8=
EXTT9=
EXTT10=
EXTT11=
PLAYORDER=
